#!OML:ASF X:\für Bonn\!DataBase\2005_08_11_Bastian_Final\c3d\Bastian.ASF
:FULLY-SPECIFIED
:DEGREES
266
root -4.02513 17.3944 1.99492 168.705 -12.5331 -175.184
lowerback 17.0497 -1.05965 0.679706
upperback 8.29412 -2.58085 -1.32928
thorax -0.791977 -1.77635 -1.32535
lowerneck -6.04126 -7.89749 0.0472138
upperneck -13.8712 -11.2567 16.3652
head -2.12856 -6.93319 4.90874
rclavicle 1.59028e-015 -2.94201e-014
rhumerus -403.732 14.1414 -461.419
rradius 59.5998
rwrist -50.0458
rhand -35.315 1085.39
rfingers 7.12502
rthumb -8.44882 -24.4207
lclavicle 1.59028e-015 -2.94201e-014
lhumerus -48.9031 45.8242 42.0142
lradius 24.9614
lwrist -205.701
lhand -19.1816 9.8461
lfingers 7.12502
lthumb 7.12987 39.706
rfemur -18.1128 -1.53033 25.7123
rtibia 45.5081
rfoot -10.826 -13.0853
rtoes 3.41898
lfemur 6.59578 4.03707 -15.4815
ltibia 26.526
lfoot -16.0997 -4.09524
ltoes -8.9608
267
root -4.00636 17.3892 2.06607 168.72 -12.1912 -175.246
lowerback 16.7254 -1.00469 0.576348
upperback 8.33885 -2.52047 -1.23429
thorax -0.566713 -1.74967 -1.19119
lowerneck -5.81579 -7.83267 -0.0590228
upperneck -13.7765 -11.1288 16.2635
head -2.14753 -6.84852 4.90536
rclavicle 1.09332e-014 -1.51076e-014
rhumerus -403.532 14.7081 -461.6
rradius 60.0758
rwrist -49.0196
rhand -35.0183 1085.44
rfingers 7.12502
rthumb -8.1624 -24.381
lclavicle 1.09332e-014 -1.51076e-014
lhumerus -45.7062 43.5284 46.1601
lradius 25.5113
lwrist -198.89
lhand -18.2645 10.9486
lfingers 7.12502
lthumb 8.01507 40.7766
rfemur -17.417 -2.01696 25.6164
rtibia 46.3104
rfoot -11.3245 -13.5656
rtoes 3.12916
lfemur 6.24866 4.16493 -15.5376
ltibia 26.9033
lfoot -16.3237 -3.83876
ltoes -9.15807
268
root -3.98887 17.3813 2.13686 168.721 -11.8538 -175.269
lowerback 16.4411 -0.985448 0.531865
upperback 8.34538 -2.49178 -1.12986
thorax -0.405155 -1.73514 -1.07214
lowerneck -5.61594 -7.7505 -0.19596
upperneck -13.6308 -10.979 16.1356
head -2.14881 -6.74463 4.89553
rclavicle 5.28767e-014 -1.43125e-014
rhumerus -403.38 15.3187 -461.777
rradius 60.553
rwrist -48.0141
rhand -34.7727 1085.49
rfingers 7.12502
rthumb -7.92538 -24.3374
lclavicle 5.28767e-014 -1.43125e-014
lhumerus -43.2887 41.6488 49.3618
lradius 26.0861
lwrist -192.581
lhand -17.8866 12.0946
lfingers 7.12502
lthumb 8.37974 41.9084
rfemur -16.6752 -2.53823 25.5233
rtibia 47.0538
rfoot -11.88 -13.9646
rtoes 2.85299
lfemur 5.89158 4.27549 -15.5483
ltibia 27.3217
lfoot -16.5567 -3.59569
ltoes -9.31134
269
root -3.97161 17.3722 2.20641 168.733 -11.5208 -175.333
lowerback 16.1831 -0.94282 0.468174
upperback 8.35353 -2.43677 -1.03032
thorax -0.254523 -1.70878 -0.950756
lowerneck -5.62658 -7.70972 -0.327305
upperneck -13.3868 -10.9081 15.9905
head -2.08177 -6.66776 4.86217
rclavicle 1.11319e-014 1.59028e-014
rhumerus -403.262 15.8561 -461.902
rradius 61.1236
rwrist -47.0532
rhand -34.6156 1085.59
rfingers 7.12502
rthumb -7.77379 -24.2487
lclavicle 1.11319e-014 1.59028e-014
lhumerus -41.2211 40.0489 52.1158
lradius 26.7164
lwrist -186.696
lhand -17.972 13.2407
lfingers 7.12502
lthumb 8.29737 43.0577
rfemur -15.8974 -3.04348 25.3558
rtibia 47.7353
rfoot -12.5156 -14.3318
rtoes 2.85864
lfemur 5.5137 4.41514 -15.5987
ltibia 27.769
lfoot -16.8119 -3.40076
ltoes -9.41057
270
root -3.95498 17.3603 2.27603 168.734 -11.1872 -175.387
lowerback 15.969 -0.931 0.43874
upperback 8.34381 -2.41629 -0.945098
thorax -0.148151 -1.6979 -0.855799
lowerneck -5.74165 -7.64901 -0.452776
upperneck -13.0214 -10.823 15.8329
head -1.964 -6.57247 4.81419
rclavicle -4.25399e-014 -3.81667e-014
rhumerus -403.148 16.3725 -462.038
rradius 61.7153
rwrist -46.0586
rhand -34.4787 1085.62
rfingers 7.12502
rthumb -7.64159 -24.2197
lclavicle -4.25399e-014 -3.81667e-014
lhumerus -39.3364 38.3397 54.6773
lradius 27.3875
lwrist -180.83
lhand -18.3536 14.2257
lfingers 7.12502
lthumb 7.92904 44.057
rfemur -15.0721 -3.56507 25.1546
rtibia 48.3466
rfoot -13.1672 -14.6099
rtoes 3.05215
lfemur 5.13059 4.47905 -15.6552
ltibia 28.2596
lfoot -17.068 -3.19915
ltoes -9.11188
271
root -3.93821 17.348 2.34499 168.755 -10.8356 -175.499
lowerback 15.773 -0.894524 0.355847
upperback 8.3104 -2.36722 -0.872628
thorax -0.0747379 -1.67274 -0.747133
lowerneck -5.84518 -7.60311 -0.549479
upperneck -12.6472 -10.7564 15.6332
head -1.84883 -6.48504 4.74967
rclavicle 1.78906e-014 -1.27222e-014
rhumerus -403.065 16.7921 -462.118
rradius 62.3194
rwrist -45.1751
rhand -34.3302 1085.77
rfingers 7.12502
rthumb -7.49829 -24.0816
lclavicle 1.78906e-014 -1.27222e-014
lhumerus -37.6376 36.5735 57.0622
lradius 28.1696
lwrist -175.167
lhand -19.0017 15.0094
lfingers 7.12502
lthumb 7.30351 44.8634
rfemur -14.2245 -4.07247 24.8504
rtibia 48.8939
rfoot -13.7861 -14.9211
rtoes 3.47449
lfemur 4.72111 4.53682 -15.7789
ltibia 28.7693
lfoot -17.3519 -2.9492
ltoes -9.12945
272
root -3.92237 17.3339 2.41477 168.745 -10.4927 -175.555
lowerback 15.6719 -0.897083 0.377918
upperback 8.20436 -2.3448 -0.823335
thorax -0.13275 -1.6529 -0.711857
lowerneck -5.78116 -7.54793 -0.669164
upperneck -12.2733 -10.6603 15.4803
head -1.7588 -6.38693 4.71211
rclavicle -1.43125e-014 -3.10104e-014
rhumerus -403.093 17.1298 -462.27
rradius 62.94
rwrist -44.3589
rhand -34.1329 1085.87
rfingers 7.12502
rthumb -7.30781 -23.987
lclavicle -1.43125e-014 -3.10104e-014
lhumerus -36.2012 34.5731 59.2225
lradius 29.0849
lwrist -169.668
lhand -19.7569 15.5971
lfingers 7.12502
lthumb 6.57448 45.4751
rfemur -13.3077 -4.65821 24.5517
rtibia 49.3639
rfoot -14.3939 -15.2421
rtoes 4.10449
lfemur 4.31446 4.59218 -15.8393
ltibia 29.2988
lfoot -17.6039 -2.7364
ltoes -8.94349
273
root -3.90638 17.3182 2.48239 168.768 -10.1339 -175.656
lowerback 15.5517 -0.890455 0.353931
upperback 8.06972 -2.31058 -0.787341
thorax -0.209943 -1.62568 -0.666209
lowerneck -5.685 -7.49421 -0.766515
upperneck -11.8856 -10.5653 15.3139
head -1.67213 -6.28969 4.66847
rclavicle -2.16675e-014 1.19271e-014
rhumerus -403.151 17.4126 -462.416
rradius 63.555
rwrist -43.6419
rhand -33.9136 1086.08
rfingers 7.12502
rthumb -7.09621 -23.7814
lclavicle -2.16675e-014 1.19271e-014
lhumerus -34.9892 32.6483 61.1292
lradius 30.1311
lwrist -164.661
lhand -20.5979 15.974
lfingers 7.12502
lthumb 5.76257 45.8756
rfemur -12.3596 -5.24506 24.181
rtibia 49.7578
rfoot -14.9735 -15.6058
rtoes 4.74994
lfemur 3.89033 4.61186 -15.9626
ltibia 29.8295
lfoot -17.8656 -2.46307
ltoes -8.72364
274
root -3.89019 17.3025 2.54587 168.775 -9.77216 -175.769
lowerback 15.4313 -0.892026 0.314121
upperback 7.92179 -2.28706 -0.756312
thorax -0.300867 -1.60314 -0.614837
lowerneck -5.68056 -7.44133 -0.768771
upperneck -11.187 -10.5507 14.6734
head -1.72779 -6.18917 4.96163
rclavicle -9.54166e-015 -1.59028e-014
rhumerus -403.242 17.6925 -462.587
rradius 64.1552
rwrist -43.0158
rhand -33.7424 1086.33
rfingers 7.12502
rthumb -6.93093 -23.5407
lclavicle -9.54166e-015 -1.59028e-014
lhumerus -34.0048 30.7135 62.8477
lradius 31.3058
lwrist -160.002
lhand -21.3741 16.2147
lfingers 7.12502
lthumb 5.01309 46.1354
rfemur -11.3209 -5.86041 23.7598
rtibia 50.0552
rfoot -15.4865 -16.003
rtoes 5.14452
lfemur 3.49666 4.63065 -16.0897
ltibia 30.3422
lfoot -18.1063 -2.20112
ltoes -8.5335
